/* XPM */
static char *_643553988312[] = {
/* columns rows colors chars-per-pixel */
"40 40 4 1 ",
"  c #F14242",
". c #F14244",
"X c #F04248",
"o c #4242F1",
/* pixels */
"          oooooooooooooooooooo          ",
"          oooooooooooooooooooo          ",
"          oooooooooooooooooooo          ",
"          oooooooooooooooooooo          ",
"          oooooooooooooooooooo          ",
"          oooooo        oooooo          ",
"          oooooo        oooooo          ",
"          oooooo        oooooo          ",
"          oooooo        oooooo          ",
"          oooooo        oooooo          ",
"          oooooo        oooooo          ",
"          oooooo       Xoooooo          ",
"          oooooo        oooooo          ",
"          oooooo       .oooooo          ",
"          oooooo        oooooo          ",
"          oooooo        oooooo          ",
"          oooooo        oooooo          ",
"          oooooo        oooooo          ",
"          oooooo        oooooo          ",
"          oooooo       Xoooooo          ",
"          oooooo       Xoooooo          ",
"          oooooo       .oooooo          ",
"          oooooo        oooooo          ",
"          oooooo        oooooo          ",
"          oooooo    .   oooooo          ",
"          oooooo        oooooo          ",
"          oooooo        oooooo          ",
"          oooooo        oooooo          ",
"          oooooo        oooooo          ",
"          oooooo        oooooo          ",
"          oooooo        oooooo          ",
"          oooooo        oooooo          ",
"          oooooo        oooooo          ",
"          oooooo        oooooo          ",
"          oooooo        oooooo          ",
"          oooooooooooooooooooo          ",
"          oooooooooooooooooooo          ",
"          oooooooooooooooooooo          ",
"          oooooooooooooooooooo          ",
"          oooooooooooooooooooo          "
};
