/* XPM */
static char *_643554001730[] = {
/* columns rows colors chars-per-pixel */
"40 40 5 1 ",
"  c #F14242",
". c #F14244",
"X c #F04248",
"o c #ED4253",
"O c #4242F1",
/* pixels */
"          OOOOOOOOOOOOOOOOOOOO          ",
"          OOOOOOOOOOOOOOOOOOOO          ",
"          OOOOOOOOOOOOOOOOOOOO          ",
"          OOOOOOOOOOOOOOOOOOOO          ",
"          OOOOOOOOOOOOOOOOOOOO          ",
"          OOOOOO        OOOOOO          ",
"          OOOOOO        OOOOOO          ",
"          OOOOOO        OOOOOO          ",
"          OOOOOO        OOOOOO          ",
"          ...           OOOOOO          ",
"                        OOOOOO          ",
"                       XOOOOOO          ",
"                        OOOOOO          ",
"                       XOOOOOO          ",
"          X        o.  oOOOOOO          ",
"          OOOOOOOOOOOOOOOOOOOO          ",
"          OOOOOOOOOOOOOOOOOOOO          ",
"          OOOOOOOOOOOOOOOOOOOO          ",
"          OOOOOOOOOOOOOOOOOOOO          ",
"          OOOOOOOOOOOOOOOOOOOO          ",
"          OOOOOO       XX               ",
"          OOOOOO       .                ",
"          OOOOOO                        ",
"          OOOOOO                        ",
"          OOOOOO                        ",
"          OOOOOO                        ",
"          OOOOOO                        ",
"          OOOOOO                        ",
"          OOOOOO                        ",
"          OOOOOO                        ",
"          OOOOOO                        ",
"          OOOOOO                        ",
"          OOOOOO                        ",
"          OOOOOO                        ",
"          OOOOOO             .          ",
"          OOOOOOOOOOOOOOOOOOOO          ",
"          OOOOOOOOOOOOOOOOOOOO          ",
"          OOOOOOOOOOOOOOOOOOOO          ",
"          OOOOOOOOOOOOOOOOOOOO          ",
"          OOOOOOOOOOOOOOOOOOOO          "
};
