/* XPM */
static char *_643554006195[] = {
/* columns rows colors chars-per-pixel */
"40 40 6 1 ",
"  c #F14242",
". c #F14244",
"X c #F04248",
"o c #EE4250",
"O c #ED4253",
"+ c #4242F1",
/* pixels */
"          ++++++++++++++++++++          ",
"          ++++++++++++++++++++          ",
"          ++++++++++++++++++++          ",
"          ++++++++++++++++++++          ",
"          ++++++++++++++++++++          ",
"          ++++++        ++++++          ",
"          ++++++        ++++++          ",
"          ++++++        ++++++          ",
"          ++++++        ++++++          ",
"          ...           ++++++          ",
"                        ++++++          ",
"                       X++++++          ",
"                        ++++++          ",
"                       X++++++          ",
"          .        O.  O++++++          ",
"                 +++++++++++++          ",
"                 +++++++++++++          ",
"                 +++++++++++++          ",
"                 +++++++++++++          ",
"                 +++++++++++++          ",
"                       X++++++          ",
"                       .++++++          ",
"                        ++++++          ",
"                        ++++++          ",
"                        ++++++          ",
"                        ++++++          ",
"                        ++++++          ",
"                        ++++++          ",
"                        ++++++          ",
"                        ++++++          ",
"          .             ++++++          ",
"          ++++++        ++++++          ",
"          ++++++        ++++++          ",
"          ++++++        ++++++          ",
"          ++++++        ++++++          ",
"          ++++++++++++++++++++          ",
"          ++++++++++++++++++++          ",
"          ++++++++++++++++++++          ",
"          ++++++++++++++++++++          ",
"          ++++++++++++++++++++          "
};
