/* XPM */
static char *_643554018087[] = {
/* columns rows colors chars-per-pixel */
"40 40 8 1 ",
"  c #EF424B",
". c #F14242",
"X c #F14244",
"o c #F04246",
"O c #EE4250",
"+ c #EC4258",
"@ c #EB425C",
"# c #4242F1",
/* pixels */
"..........######........######..........",
"..........######........######..........",
"..........######........######..........",
"..........######........######..........",
"..........######........######..........",
"..........######........######..........",
"..........######........######..........",
"..........######........######..........",
"..........######........######..........",
"..........######........######..........",
"..........######........######..........",
"..........######....... ######..........",
"..........######........######..........",
"..........######.......+######..........",
"..........######...OX..@######..........",
"..........####################..........",
"..........####################..........",
"..........####################..........",
"..........####################..........",
"..........####################..........",
".......................X######..........",
".......................X######..........",
"........................######..........",
"........................######..........",
"....................X...######..........",
"........................######..........",
"........................######..........",
"........................######..........",
"........................######..........",
"........................######..........",
"........................######..........",
"........................######..........",
"........................######..........",
"........................######..........",
"........................######..........",
"........................######..........",
"........................######..........",
"........................######..........",
"........................######..........",
"........................######.........."
};
