/* XPM */
static char *_643554037150[] = {
/* columns rows colors chars-per-pixel */
"40 40 5 1 ",
"  c #EF4249",
". c #F14242",
"X c #F14244",
"o c #F04248",
"O c #4242F1",
/* pixels */
"..........OOOOOOOOOOOOOOOOOOOO..........",
"..........OOOOOOOOOOOOOOOOOOOO..........",
"..........OOOOOOOOOOOOOOOOOOOO..........",
"..........OOOOOOOOOOOOOOOOOOOO..........",
"..........OOOOOOOOOOOOOOOOOOOO..........",
"..........X.............OOOOOO..........",
"........................OOOOOO..........",
"........................OOOOOO..........",
"........................OOOOOO..........",
"........................OOOOOO..........",
"........................OOOOOO..........",
".......................oOOOOOO..........",
"........................OOOOOO..........",
".......................XOOOOOO..........",
"..........X.............OOOOOO..........",
"........................OOOOOO..........",
"........................OOOOOO..........",
"........................OOOOOO..........",
"........................OOOOOO..........",
"....................... OOOOOO..........",
".......................oOOOOOO..........",
".......................XOOOOOO..........",
"........................OOOOOO..........",
"........................OOOOOO..........",
"........................OOOOOO..........",
"........................OOOOOO..........",
"........................OOOOOO..........",
"........................OOOOOO..........",
"........................OOOOOO..........",
"........................OOOOOO..........",
"........................OOOOOO..........",
"........................OOOOOO..........",
"........................OOOOOO..........",
"........................OOOOOO..........",
"........................OOOOOO..........",
"........................OOOOOO..........",
"........................OOOOOO..........",
"........................OOOOOO..........",
"........................OOOOOO..........",
"....................... OOOOOO.........."
};
