/* XPM */
static char *_643554047765[] = {
/* columns rows colors chars-per-pixel */
"40 40 6 1 ",
"  c #F14242",
". c #F14244",
"X c #F04248",
"o c #ED4253",
"O c #EB4259",
"+ c #4242F1",
/* pixels */
"          ++++++++++++++++++++          ",
"          ++++++++++++++++++++          ",
"          ++++++++++++++++++++          ",
"          ++++++++++++++++++++          ",
"          ++++++++++++++++++++          ",
"          ++++++        ++++++          ",
"          ++++++        ++++++          ",
"          ++++++        ++++++          ",
"          ++++++        ++++++          ",
"          ++++++        ++++++          ",
"          ++++++        ++++++          ",
"          ++++++       X++++++          ",
"          ++++++        ++++++          ",
"          ++++++       X++++++          ",
"          ++++++   o.  o++++++          ",
"          ++++++++++++++++++++          ",
"          ++++++++++++++++++++          ",
"          ++++++++++++++++++++          ",
"          ++++++++++++++++++++          ",
"          ++++++++++++++++++++          ",
"               O       .++++++          ",
"                       .++++++          ",
"                        ++++++          ",
"                        ++++++          ",
"                    .   ++++++          ",
"                        ++++++          ",
"                        ++++++          ",
"                        ++++++          ",
"                        ++++++          ",
"                        ++++++          ",
"                        ++++++          ",
"                        ++++++          ",
"                        ++++++          ",
"                        ++++++          ",
"          O             ++++++          ",
"          ++++++++++++++++++++          ",
"          ++++++++++++++++++++          ",
"          ++++++++++++++++++++          ",
"          ++++++++++++++++++++          ",
"          ++++++++++++++++++++          "
};
