/* XPM */
static char *_643387187730[] = {
/* columns rows colors chars-per-pixel */
"40 40 9 1 ",
"  c black",
". c #381414",
"X c #491A1A",
"o c #592828",
"O c #0C560D",
"+ c #067307",
"@ c #089709",
"# c #EDBF2B",
"$ c None",
/* pixels */
"$$$$$$$$$$$$$$$$$      $$$$$$$$$$$$$$$$$",
"$$$$$$$$$$$$$$$$$ ++++ $$$$$$$$$$$$$$$$$",
"$$$$$$$$$$$$$$$$$      $$$$$$$$$$$$$$$$$",
"$$$$$$$$$$$$$$$$$ XXX. $$$$$$$$$$$$$$$$$",
"$$$$$$$$$$$$$$$$$ oX.. $$$$$$$$$$$$$$$$$",
"$$$$$$$$$$$$$$$$$ XXo. $$$$$$$$$$$$$$$$$",
"$$$$$$$$$$$$$$$$$ oXX. $$$$$$$$$$$$$$$$$",
"$$$$$$$$$$$$$$$$  XX.X  $$$$$$$$$$$$$$$$",
"$$$$$$$$$$$$$$$  XoXXXX  $$$$$$$$$$$$$$$",
"$$$$$$$$$$$$$$  XoXXXXXX  $$$$$$$$$$$$$$",
"$$$$$$$$$$$$$  XoXXXXXXXX  $$$$$$$$$$$$$",
"$$$$$$$$$$$$$ XXXXX.X...X. $$$$$$$$$$$$$",
"$$$$$$$$$$$$$ oXXXXXXX.X.. $$$$$$$$$$$$$",
"$$$$$$$$$$$$$ XoXXXXXXXX.. $$$$$$$$$$$$$",
"$$$$$$$$$$$$$ oXXoXXXXX... $$$$$$$$$$$$$",
"$$$$$$$$$$$$$ oXXXXXXXXX.X $$$$$$$$$$$$$",
"$$$$$$$$$$$$$ XXXXXXXX..X. $$$$$$$$$$$$$",
"$$$$$$$$$$$$$ +++++++OO+OO $$$$$$$$$$$$$",
"$$$$$$$$$$$$$ @++++++++OO+ $$$$$$$$$$$$$",
"$$$$$$$$$$$$$ @@++++++++OO $$$$$$$$$$$$$",
"$$$$$$$$$$$$$ @###+#+#+##O $$$$$$$$$$$$$",
"$$$$$$$$$$$$$ +#+++#+#++#O $$$$$$$$$$$$$",
"$$$$$$$$$$$$$ +###+###O##+ $$$$$$$$$$$$$",
"$$$$$$$$$$$$$ +#+#+++#+O#O $$$$$$$$$$$$$",
"$$$$$$$$$$$$$ +###+###+##+ $$$$$$$$$$$$$",
"$$$$$$$$$$$$$ +@@+++++++OO $$$$$$$$$$$$$",
"$$$$$$$$$$$$$ @@++++++++OO $$$$$$$$$$$$$",
"$$$$$$$$$$$$$ ++++++OO+O+O $$$$$$$$$$$$$",
"$$$$$$$$$$$$$ @+++++++++OO $$$$$$$$$$$$$",
"$$$$$$$$$$$$$ XXXXXXXX..X. $$$$$$$$$$$$$",
"$$$$$$$$$$$$$ oXXXXXXX.X.. $$$$$$$$$$$$$",
"$$$$$$$$$$$$$ XXXXXXXXX..X $$$$$$$$$$$$$",
"$$$$$$$$$$$$$ oXXXXXXXX... $$$$$$$$$$$$$",
"$$$$$$$$$$$$$ XoXXXXX.XX.. $$$$$$$$$$$$$",
"$$$$$$$$$$$$$ XoXXX..X..X. $$$$$$$$$$$$$",
"$$$$$$$$$$$$$ XXXXXXX..X.. $$$$$$$$$$$$$",
"$$$$$$$$$$$$$ XXXXX....... $$$$$$$$$$$$$",
"$$$$$$$$$$$$$  XXX.......  $$$$$$$$$$$$$",
"$$$$$$$$$$$$$$            $$$$$$$$$$$$$$",
"$$$$$$$$$$$$$$            $$$$$$$$$$$$$$"
};
