/* XPM */
static char *_643394032407[] = {
/* columns rows colors chars-per-pixel */
"40 40 12 1 ",
"  c black",
". c #381414",
"X c #0D1A63",
"o c #AA1218",
"O c #892327",
"+ c #ED232B",
"@ c #9F7D10",
"# c #EDBF2B",
"$ c #1C39D3",
"% c #ABDAFF",
"& c #C5E5FF",
"* c white",
/* pixels */
"&**%****%%*%%%***&*  **%***&**%%&*%%%***",
"*%%%%%&%**%%%****  **  *%%*%%%*%&**%%%%*",
"**%*&&*%%***%*   **.***   ***%*%&%%%%%*%",
"%%*%&%%**%**  *****.**.***  *%**&&&&%%%*",
"%&&%%&%*%*  **.*.*.**.*..*** %%*%%%*&%**",
"%&**%%**   ****........*...**   ****%&%%",
"%%&&%*  **.*.............*...*.*  ****&&",
"**X   *****...*.......*......*..**   ***",
"X *****.....*.....................***  X",
" *.*...............................**** ",
"  +++++OO++++++O+++o+ooo+++++++++++++*  ",
"* oo+oO++++oOOoO++++++++++*O+OO++oo++o *",
"& OOoOOoo+ooo+o++o+o+O++oo+oo*++++++o+ *",
"& +*+o+o++++oo++++*+++++O+OOO+oo+oO++O %",
"% +O+++++++++++ooo+o+O+++o+oo+++++o+oO %",
"& o+O+@@@@@@@@@@@@@@@@@@@@@@@@@@@@+o+O %",
"& oO++@##########################@+++o *",
"& ++++@#####$$$$$$####$$####$$###@+++O &",
"* +o++@####$$$$$$$$###$$####$$###@+++O &",
"% +++o@###$$#####$$$##$$####$$###@+*o+ &",
"* ++++@###$$######$$##$$####$$###@++o+ &",
"* ++o+@###$$######$$##$$####$$###@+oo+ &",
"* ++o+@###$$$#####$$##$$####$$###@++o+ &",
"* +*o+@####$$#####$$##$$####$$###@++++ %",
"* oo++@#######*##$$$##$$####$$###@++oO *",
"* ++++@#########$$$###$$$$$$$$###@++++ %",
"* +o++@########$$$####$$$$$$$$###@++++ %",
"* +OO+@#######$$$###########$$###@+OOo %",
"% oO++@*#####$$$############$$###@+ooo *",
"* o+O+@#####$$$#############$$###@++++ *",
"% O+OO@####$$$#######*######$$###@++++ %",
"% +o+O@###$$$$$$$$$#########$$###*++++ *",
"* ++++@###$$$$$$$$$#########$$###@+Oo+ *",
"& +++O@##########################@O+++ %",
"& oo*O@@@@@@@@@@@@@@@@@@@@@@@@@@@@++++ *",
"* O+++oo+o+OO+++++++++++++++++++++++o+ *",
"& o+++++++oo+ooo++o+o*oo+o+++++O++*+++ *",
"* OOo+++++o*++O+O+++O++OOOoOOoOooo+++O *",
"* +O+OOOO++++++++++++o+oo++++Oo+Ooo+OO *",
"*                                      *"
};
