/* XPM */
static char *_c30d144d4d04b39801982766eb595b4Pcs7QhkmxvwmVaIx[] = {
/* columns rows colors chars-per-pixel */
"40 40 14 1 ",
"  c None",
". c black",
"X c #3F5372",
"o c gray43",
"O c gray49",
"+ c #F14242",
"@ c #958822",
"# c #FFEB46",
"$ c #587199",
"% c #4242F1",
"& c #4244F1",
"* c #798DAE",
"= c #9B9B9B",
"- c white",
/* pixels */
"                                        ",
"                                        ",
"                                        ",
"                                        ",
"                                        ",
"                                        ",
"                                        ",
"                                        ",
"                                        ",
"                                        ",
"                                        ",
"                                        ",
"                   %                    ",
"          +         %                   ",
"              +  %                      ",
"            +      %                    ",
"             ......                     ",
"             .++%%.                     ",
"     ...................                ",
"    ..XX.*XX*XX.XXXXXX$..               ",
"   ..XXX.XXX@@X.XX@X@$$X..              ",
"  ...*XX.XX*XXX.XX*XXX$*$..             ",
" ..=.XXX.***XXX.*X*XX@$X$*..            ",
"..==.@@X.**XXXX.****XXX*X@X..           ",
".....................................   ",
".%%%%%%%%%%%%%%.%&&-%&%-%---%.%%%%%%... ",
".%%%%%%%%%%%%%%.%&--%&--%-&-%.%%%%%%%#..",
".==============.=-=-=-=-===-=.========#.",
".oooooooooooooo.ooo-ooo-oo-oo.ooooooooo.",
".OOO....OOOOOOO.OOO-OOO-O-OOO.OO....OOO.",
".==......======.===-===-=---=.=......==.",
".....oo..........................oo.....",
"   ..oo..                      ..oo..   ",
"   ......                      ......   ",
"    ....                        ....    ",
"                                        ",
"                                        ",
"                                        ",
"                                        ",
"                                        "
};
