/* XPM */
static char *_643393182621[] = {
/* columns rows colors chars-per-pixel */
"40 40 13 1 ",
"  c black",
". c #3F5372",
"X c gray43",
"o c gray49",
"O c #F14242",
"+ c #958822",
"@ c #FFEB46",
"# c #587199",
"$ c #4242F1",
"% c #798DAE",
"& c #9B9B9B",
"* c white",
"= c None",
/* pixels */
"========================================",
"========================================",
"========================================",
"========================================",
"========================================",
"========================================",
"========================================",
"========================================",
"========================================",
"========================================",
"========================================",
"========================================",
"====================$===================",
"===================$=========O==========",
"======================$==O==============",
"====================$======O============",
"=====================      =============",
"===================== $$OO =============",
"================                   =====",
"===============  #...... ..%..% ..  ====",
"==============  .##+.+.. .++... ...  ===",
"=============  #%#...%.. ...%.. ..%   ==",
"============  %#.#+..%.% ...%%% ... &  =",
"===========  .+.%...%%%% ....%% .++ &&  ",
"===                                     ",
"=   $$$$$$ $$$*$$$*$***$ $$$$$$$$$$$$$$ ",
"  @$$$$$$$ $$**$$**$*$*$ $$$$$$$$$$$$$$ ",
" @&&&&&&&& &*&*&*&*&&&*& &&&&&&&&&&&&&& ",
" XXXXXXXXX XXX*XXX*XX*XX XXXXXXXXXXXXXX ",
" ooo    oo ooo*ooo*o*ooo ooooooo    ooo ",
" &&      & &&&*&&&*&***& &&&&&&      && ",
"     XX                          XX     ",
"===  XX  ======================  XX  ===",
"===      ======================      ===",
"====    ========================    ====",
"========================================",
"========================================",
"========================================",
"========================================",
"========================================"
};
