/* XPM */
static char *_643391184359[] = {
/* columns rows colors chars-per-pixel */
"40 40 4 1 ",
"  c #ABDAFF",
". c #D8E9E6",
"X c #C5E5FF",
"o c white",
/* pixels */
"     oo ooo   ooo o    ooXoo  o    o    ",
" ooooooooo oooo   Xo oo   XXooo  ooo o  ",
"ooooooooooooooooXX o o  oo     ooo  oooo",
"   ooooo       oXXo  o oooo oo     oo oo",
"  o  o   oooo o   XXo ooooo ooo  o      ",
"  o oooooooo   oooooooooo       o       ",
"oooooooo. ooXooooooXooooooooooooooooooo ",
"oooo o  ooXXXXXXXXXo X   .  ooo oooooooo",
"o  ooo  oooXoo..    ooXoXXX Xo     o   o",
" oo  o    .X oo ooo.o.    oXo       ooo ",
"ooooo  o o Xooo.o..o.ooo oooXXoXXX Xoooo",
"ooo ooo   X  oo.o oooo o o oo  ooXXXoooo",
"ooooXX XXX oo oo...  o oo oooooXXX    o ",
"oo Xoo oooo     . o ooooooo o X Xoo   o ",
"  o o oo o ooooooooooo   o  oXoXoo  XX  ",
"oo   ooo oooooooXooooooooo  XoooXoooXo  ",
"oo oooXXooooXooo..ooo  o ooo   oooXooo  ",
"  ooooooXXXX oooooo   X o. .X.o..oXX  o ",
"o oo     o  oXXoXXXooXoooooooo oooooo XX",
"oooo     ooo ooXXXoooXoo   oo oooo XX oo",
" ooo    oooooooXoooXo ooo o   o  XX   oo",
"  ooooooooooo ooooooo o      ooXXXXXX   ",
"  o  ooo ooo o  ooooXXooo ooo oooXooooo ",
" o  oooo ooo oooo ooo oo Xo ooXXooXXo oo",
"o  ooo     XXX o ooo oooXooo oooXXoooXoX",
"o ooXXXXX XXXXoooooooooX   o oooo.XXoooo",
"oooo ooXXXXX  o oooooooXXooooXXXXXXXoooo",
"ooooo  XX o oooo     ooooXoXXXX oooooo  ",
"oooXXXooooo.oo oooooo  oXoX  . X oooo   ",
"o   XX XX.. .  ooooo oooo ooo.X.oo..o   ",
"ooooo    XXo..oooooooooooooooXooo .ooooo",
"oooooooXoXXXXXXXooo o     Xo ooo      oo",
"    ooooXXXooooo oooooooooooooooo oo    ",
"  oo  XoooXooXXXX XXX XXX XooXooo o     ",
"      ooo  XXXXXXXXoXooooXoXoooo ooo ooo",
"  ooooooo oX   o ooXXXXXXoooo ooooo   o ",
"o o ooXXoXXX XXooXoooXoo X       o   o o",
"X ooooXoooXoooXoooo oooooooooooXX XXXXXX",
"XXoXXXoXoXoXXooXXXXXXoXXXoXXX XXXXoo    ",
"ooo    o   oo oXX XXo     oooooo     o  "
};
