/* XPM */
static char *_643552538251[] = {
/* columns rows colors chars-per-pixel */
"40 40 7 1 ",
"  c black",
". c #FF2121",
"X c #91463D",
"o c #249CA3",
"O c #E5CDC4",
"+ c white",
"@ c None",
/* pixels */
"@@@@@@@@@@@@@@@         @@@@@@@@@@@@@@@@",
"@@@@@@@@@@@@@@ ......... @@@@@@@@@@@@@@@",
"@@@@@@@@@@@@@  .........  @@@@@@@@@@@@@@",
"@@@@@@@@@@@@@ .....XX.... @@@@@@@@@@@@@@",
"@@@@@@@@@@@@@ ....XXX.... @@@@@@@@@@@@@@",
"@@@@@@@@@@@@@ OOOXXOOXXOO @@@@@@@@@@@@@@",
"@@@@@@@@@@@@ O     O     O @@@@@@@@@@@@@",
"@@@@@@@@@@@@ OO o+   o+ OO @@@@@@@@@@@@@",
"@@@@@@@@@@@@ OO  o O  o OO @@@@@@@@@@@@@",
"@@@@@@@@@@@@@ O    O    O @@@@@@@@@@@@@@",
"@@@@@@@@@@@@@@ OOOOOOOOO @@@@@@@@@@@@@@@",
"@@@@@@@@@@@@@@ OOXOOOXOO @@@@@@@@@@@@@@@",
"@@@@@@@@@@@@@@ OOOXXXOOO @@@@@@@@@@@@@@@",
"@@@@@@@@@@@@@@@ OOOOOOO @@@@@@@@@@@@@@@@",
"@@@@@@@@@@@@@             @@@@@@@@@@@@@@",
"@@@@@@@@@@@@ ............. @@@@@@@@@@@@@",
"@@@@@@@@@@@                 @@@@@@@@@@@@",
"@@@@@@@@@@@ .. ......... .. @@@@@@@@@@@@",
"@@@@@@@@@@@                 @@@@@@@@@@@@",
"@@@@@@@@@@@ .. ......... .. @@@@@@@@@@@@",
"@@@@@@@@@@@                 @@@@@@@@@@@@",
"@@@@@@@@@@@ .. ......... .. @@@@@@@@@@@@",
"@@@@@@@@@@@                 @@@@@@@@@@@@",
"@@@@@@@@@@@ .. ......... .. @@@@@@@@@@@@",
"@@@@@@@@@@@                 @@@@@@@@@@@@",
"@@@@@@@@@@@  O ......... O  @@@@@@@@@@@@",
"@@@@@@@@@@@ O             O @@@@@@@@@@@@",
"@@@@@@@@@@@ OO     @     OO @@@@@@@@@@@@",
"@@@@@@@@@@@@       @       @@@@@@@@@@@@@",
"@@@@@@@@@@@@@@     @@      @@@@@@@@@@@@@",
"@@@@@@@@@@@@@@     @@@     @@@@@@@@@@@@@",
"@@@@@@@@@@@@@@     @@@     @@@@@@@@@@@@@",
"@@@@@@@@@@@@@@     @@      @@@@@@@@@@@@@",
"@@@@@@@@@@@@@@     @@     @@@@@@@@@@@@@@",
"@@@@@@@@@@@@@@     @     @@@@@@@@@@@@@@@",
"@@@@@@@@@@@@@@     @ ++  @@@@@@@@@@@@@@@",
"@@@@@@@@@@@@@@     @   + @@@@@@@@@@@@@@@",
"@@@@@@@@@@@@@@     @@     @@@@@@@@@@@@@@",
"@@@@@@@@@@@@@@ +++ @@@    @@@@@@@@@@@@@@",
"@@@@@@@@@@@@@      @@@@@@@@@@@@@@@@@@@@@"
};
