/* XPM */
static char *_643390436189[] = {
/* columns rows colors chars-per-pixel */
"40 40 7 1 ",
"  c black",
". c #385B53",
"X c #5A6361",
"o c #F6ED65",
"O c #A3AEAC",
"+ c #D8E9E6",
"@ c white",
/* pixels */
"XXXXXXXXXXXXXXXXXXXXXXXXXXXXXXXXXXXXXXXX",
"XOOOOOOOOOOOOOOOOOOOOOOOOOOOOOOOOOOOOOOX",
"XOOOOOOOOOOOOOOOOOOOOOOOOOOOOOOOOOOOOOOX",
"XOOOOOOOOOOOOOOOOOOOOOOOOOOOOOOOOOOOOOOX",
"XOOOOOOOOOOOOOOOOOOOOOOOOOOOOOOOOOOOOOOX",
"XOOOOOOOOOOOOOOOOOOOOOOOOOOOOOOOOOOOOOOX",
"XOOOOOOOOOOOOOOOOOOOOOOOOOOOOOOOOOOOOOOX",
"XOOOOOOOOOOOOOOOOOOOOOOOOOOOOOOOOOOOOOOX",
"XOOOOOOOOOOOOOOOOOOOOOOOOOOOOOOOOOOOOOOX",
"XOOOOOOOOOOOOOOOOOOOOOOOOOOOOOOOOOOOOOOX",
"XOOOOOOOXXXXXXXXXXXXXXXXXXXXXXXXOOOOOOOX",
"XOOOOOOOX@@@@@@@@@@@@@@@@@@@@@@XOOOOOOOX",
"XOOOOOOOX@XXXXXX@XXXXXX@XXXXXX@XOOOOOOOX",
"XOOOOOOOX@X oo  @X+oo o@Xo oo @XOOOOOOOX",
"XOOOOOOOX@Xo+ooo@Xo+oo @Xo+ o @XOOOOOOOX",
"XOOOOOOOX@Xo+   @.oo o @Xo o o@XOOOOOOOX",
"XOOOOOOOX@ o + .@ .o . @ oo+o @XOOOOOOOX",
"XOOOOOOOX@ +o oo@o ++  @ o  . @XOOOOOOOX",
"XOOOOOOOX@X ..  @ .o.o @ o..o @XOOOOOOOX",
"XOOOOOOOX@   .  @ ..+. @ . .  @XOOOOOOOX",
"XOOOOOOOX@ .. . @ + +o @    ..@XOOOOOOOX",
"XOOOOOOOX@      @   .o @ ...  @XOOOOOOOX",
"XOOOOOOOX@  . . @  o   @ .  . @XOOOOOOOX",
"XOOOOOOOX@   .  @  . . @ . .  @XOOOOOOOX",
"XOOOOOOOX@      @      @ .    @XOOOOOOOX",
"XOOOOOOOX@      @      @ .    @XOOOOOOOX",
"XOOOOOOOX@      @      @      @XOOOOOOOX",
"XOOOOOOOX@      @      @      @XOOOOOOOX",
"XOOOOOOOX@@@@@@@@@@@@@@@@@@@@@@XOOOOOOOX",
"XOOOOOOOXXXXXXXXXXXXXXXXXXXXXXXXOOOOOOOX",
"XOOOOOOOOOOOOOOOOOOOOOOOOOOOOOOOOOOOOOOX",
"XOOOOOOOOOOOOOOOOOOOOOOOOOOOOOOOOOOOOOOX",
"XOOOOOOOOOOOOOOOOOOOOOOOOOOOOOOOOOOOOOOX",
"XOOOOOOOOOOOOOOOOOOOOOOOOOOOOOOOOOOOOOOX",
"XOOOOOOOOOOOOOOOOOOOOOOOOOOOOOOOOOOOOOOX",
"XOOOOOOOOOOOOOOOOOOOOOOOOOOOOOOOOOOOOOOX",
"XOOOOOOOOOOOOOOOOOOOOOOOOOOOOOOOOOOOOOOX",
"XOOOOOOOOOOOOOOOOOOOOOOOOOOOOOOOOOOOOOOX",
"XOOOOOOOOOOOOOOOOOOOOOOOOOOOOOOOOOOOOOOX",
"XXXXXXXXXXXXXXXXXXXXXXXXXXXXXXXXXXXXXXXX"
};
